HIERARCHY
ROOT hip
{
  OFFSET 0 0 0
  CHANNELS 6 Xposition Yposition Zposition Zrotation Yrotation Xrotation
  JOINT abdomen
  {
    OFFSET 0 20.6881 -0.73152
    CHANNELS 3 Zrotation Xrotation Yrotation
    JOINT chest
    {
      OFFSET 0 11.7043 -0.48768
      CHANNELS 3 Zrotation Xrotation Yrotation
      JOINT neck
      {
        OFFSET 0 22.1894 -2.19456
        CHANNELS 3 Zrotation Xrotation Yrotation
        JOINT head
        {
          OFFSET -0.24384 7.07133 1.2192
          CHANNELS 3 Zrotation Xrotation Yrotation
          JOINT leftEye
          {
            OFFSET 4.14528 8.04674 8.04672
            CHANNELS 3 Zrotation Xrotation Yrotation
            End Site
            {
              OFFSET 1 0 0
            }
          }
          JOINT rightEye
          {
            OFFSET -3.6576 8.04674 8.04672
            CHANNELS 3 Zrotation Xrotation Yrotation
            End Site
            {
              OFFSET 1 0 0
            }
          }
        }
      }
      JOINT rCollar
      {
        OFFSET -2.68224 19.2634 -4.8768
        CHANNELS 3 Zrotation Xrotation Yrotation
        JOINT rShldr
        {
          OFFSET -8.77824 -1.95073 1.46304
          CHANNELS 3 Zrotation Xrotation Yrotation
          JOINT rForeArm
          {
            OFFSET -28.1742 -1.7115 0.48768
            CHANNELS 3 Zrotation Xrotation Yrotation
            JOINT rHand
            {
              OFFSET -22.5879 0.773209 7.07136
              CHANNELS 3 Zrotation Xrotation Yrotation
              JOINT rThumb1
              {
                OFFSET -1.2192 -0.487915 3.41376
                CHANNELS 3 Zrotation Xrotation Yrotation
                JOINT rThumb2
                {
                  OFFSET -3.37035 -0.52449 3.41376
                  CHANNELS 3 Zrotation Xrotation Yrotation
                  End Site
                  {
                    OFFSET -1.78271 -1.18214 1.43049
                  }
                }
              }
              JOINT rIndex1
              {
                OFFSET -7.75947 0.938293 5.60832
                CHANNELS 3 Zrotation Xrotation Yrotation
                JOINT rIndex2
                {
                  OFFSET -2.54057 -0.884171 1.56538
                  CHANNELS 3 Zrotation Xrotation Yrotation
                  End Site
                  {
                    OFFSET -1.62519 -0.234802 1.16502
                  }
                }
              }
              JOINT rMid1
              {
                OFFSET -8.24714 1.18213 3.41376
                CHANNELS 3 Zrotation Xrotation Yrotation
                JOINT rMid2
                {
                  OFFSET -3.10165 -0.590103 1.0647
                  CHANNELS 3 Zrotation Xrotation Yrotation
                  End Site
                  {
                    OFFSET -2.48547 -0.328903 0.83742
                  }
                }
              }
              JOINT rRing1
              {
                OFFSET -8.82822 0.546677 1.51678
                CHANNELS 3 Zrotation Xrotation Yrotation
                JOINT rRing2
                {
                  OFFSET -2.60934 -0.819778 -0.0198488
                  CHANNELS 3 Zrotation Xrotation Yrotation
                  End Site
                  {
                    OFFSET -2.33842 -0.294052 0.168128
                  }
                }
              }
              JOINT rPinky1
              {
                OFFSET -8.27202 -0.0477905 -0.4584
                CHANNELS 3 Zrotation Xrotation Yrotation
                JOINT rPinky2
                {
                  OFFSET -1.82734 -0.647385 -0.700984
                  CHANNELS 3 Zrotation Xrotation Yrotation
                  End Site
                  {
                    OFFSET -1.69225 -0.51767 -0.607171
                  }
                }
              }
            }
          }
        }
      }
      JOINT lCollar
      {
        OFFSET 2.68224 19.2634 -4.8768
        CHANNELS 3 Zrotation Xrotation Yrotation
        JOINT lShldr
        {
          OFFSET 8.77824 -1.95073 1.46304
          CHANNELS 3 Zrotation Xrotation Yrotation
          JOINT lForeArm
          {
            OFFSET 28.1742 -1.7115 0.48768
            CHANNELS 3 Zrotation Xrotation Yrotation
            JOINT lHand
            {
              OFFSET 22.5879 0.773209 7.07136
              CHANNELS 3 Zrotation Xrotation Yrotation
              JOINT lThumb1
              {
                OFFSET 1.2192 -0.487915 3.41376
                CHANNELS 3 Zrotation Xrotation Yrotation
                JOINT lThumb2
                {
                  OFFSET 3.37035 -0.52449 3.41376
                  CHANNELS 3 Zrotation Xrotation Yrotation
                  End Site
                  {
                    OFFSET 1.78271 -1.18214 1.43049
                  }
                }
              }
              JOINT lIndex1
              {
                OFFSET 7.75947 0.938293 5.60832
                CHANNELS 3 Zrotation Xrotation Yrotation
                JOINT lIndex2
                {
                  OFFSET 2.54057 -0.884171 1.56538
                  CHANNELS 3 Zrotation Xrotation Yrotation
                  End Site
                  {
                    OFFSET 1.62519 -0.234802 1.16502
                  }
                }
              }
              JOINT lMid1
              {
                OFFSET 8.24714 1.18213 3.41376
                CHANNELS 3 Zrotation Xrotation Yrotation
                JOINT lMid2
                {
                  OFFSET 3.10165 -0.590103 1.0647
                  CHANNELS 3 Zrotation Xrotation Yrotation
                  End Site
                  {
                    OFFSET 2.48547 -0.328903 0.83742
                  }
                }
              }
              JOINT lRing1
              {
                OFFSET 8.82822 0.546677 1.51678
                CHANNELS 3 Zrotation Xrotation Yrotation
                JOINT lRing2
                {
                  OFFSET 2.60934 -0.819778 -0.0198488
                  CHANNELS 3 Zrotation Xrotation Yrotation
                  End Site
                  {
                    OFFSET 2.33842 -0.294052 0.168128
                  }
                }
              }
              JOINT lPinky1
              {
                OFFSET 8.27202 -0.0477905 -0.4584
                CHANNELS 3 Zrotation Xrotation Yrotation
                JOINT lPinky2
                {
                  OFFSET 1.82734 -0.647385 -0.700984
                  CHANNELS 3 Zrotation Xrotation Yrotation
                  End Site
                  {
                    OFFSET 1.69225 -0.51767 -0.607171
                  }
                }
              }
            }
          }
        }
      }
    }
  }
  JOINT rButtock
  {
    OFFSET -8.77824 4.35084 1.2192
    CHANNELS 3 Zrotation Xrotation Yrotation
    JOINT rThigh
    {
      OFFSET 0 -1.70687 -2.19456
      CHANNELS 3 Zrotation Xrotation Yrotation
      JOINT rShin
      {
        OFFSET 0 -36.8199 0.73152
        CHANNELS 3 Zrotation Xrotation Yrotation
        JOINT rFoot
        {
          OFFSET 0.73152 -45.1104 -5.12064
          CHANNELS 3 Zrotation Xrotation Yrotation
          End Site
          {
            OFFSET -1.1221 -3.69964 12.103
          }
        }
      }
    }
  }
  JOINT lButtock
  {
    OFFSET 8.77824 4.35084 1.2192
    CHANNELS 3 Zrotation Xrotation Yrotation
    JOINT lThigh
    {
      OFFSET 0 -1.70687 -2.19456
      CHANNELS 3 Zrotation Xrotation Yrotation
      JOINT lShin
      {
        OFFSET 0 -36.8199 0.73152
        CHANNELS 3 Zrotation Xrotation Yrotation
        JOINT lFoot
        {
          OFFSET -0.73152 -45.1104 -5.12064
          CHANNELS 3 Zrotation Xrotation Yrotation
          End Site
          {
            OFFSET 1.1221 -3.69964 12.103
          }
        }
      }
    }
  }
}
MOTION
Frames:	5
Frame Time:	0.00833333
-4.11851 73.0842 -38.9154 178.953 -23.6522 167.248 1.35192 24.4265 -5.80095 4.78108 -12.6941 -1.33928 -0.243727 5.88649 -6.34429 -7.70532 -16.81 -13.9701 -0.0 0.0 0.0 -0.0 0.0 0.0 6.3085e-14 1.21195e-14 -8.14172e-13 25.4705 -14.5678 65.7391 -28.4339 -35.6514 76.4276 -1.68783 34.209 5.48246 1.41247e-09 -1.12331e-10 6.85419e-10 2.44771e-09 -1.59088e-10 1.15185e-09 1.41247e-09 -1.12336e-10 6.8541e-10 7.73091 5.47488 0.417314 1.41246e-09 -1.12335e-10 6.8541e-10 2.90554 0.965183 0.102902 1.41247e-09 -1.12335e-10 6.85412e-10 10.2786 0.731801 0.0259123 1.41246e-09 -1.1233e-10 6.85413e-10 2.22167 -0.733487 -0.20892 6.30976e-14 1.21334e-14 -8.1447e-13 -38.7774 -5.92928 -96.3353 26.0967 -23.6863 -57.1714 3.98881 -47.9362 8.95919 -8.10392e-10 1.5273e-11 -4.62961e-09 -1.22827e-09 -7.36203e-11 -7.99421e-09 -8.10394e-10 1.5273e-11 -4.62959e-09 -7.73091 5.47488 -0.417314 -8.10392e-10 1.52715e-11 -4.62961e-09 -2.90554 0.965183 -0.102902 -8.10399e-10 1.52706e-11 -4.6296e-09 -10.2786 0.731801 -0.0259123 -8.10383e-10 1.5271e-11 -4.62961e-09 -2.22167 -0.733487 0.20892 -2.03217e-16 0.0 -3.88251e-19 -1.0944 -26.8451 10.4284 -1.4494 65.1892 1.99944 -1.86559 -14.799 -4.14571 2.03217e-16 0.0 3.88251e-19 -6.35274 -18.9861 -0.283706 0.997058 59.3654 -1.53408 -2.70938 -20.2518 -7.61601
-4.22533 72.7516 -39.2183 178.586 -24.1725 167.54 1.11479 24.3267 -5.74957 4.7477 -12.7728 -1.33311 -0.517505 6.13283 -6.40735 -7.23551 -17.298 -13.9857 -0.0 0.0 0.0 -0.0 0.0 0.0 3.52009e-14 -7.50395e-14 -7.80247e-13 25.0606 -14.8436 65.4932 -28.4313 -35.8502 76.7695 -1.74196 34.6802 5.57958 1.19555e-09 -1.03574e-10 6.98908e-10 2.0745e-09 -1.44402e-10 1.17877e-09 1.19556e-09 -1.03577e-10 6.98899e-10 7.73091 5.47488 0.417314 1.19555e-09 -1.03575e-10 6.989e-10 2.90554 0.965183 0.102902 1.19555e-09 -1.03575e-10 6.98903e-10 10.2786 0.731801 0.0259123 1.19554e-09 -1.03572e-10 6.98907e-10 2.22167 -0.733487 -0.20892 3.52108e-14 -7.50278e-14 -7.80538e-13 -38.5957 -6.23253 -96.5287 26.1296 -23.7729 -57.3187 4.00686 -48.013 8.98353 -1.00364e-09 1.40876e-10 -4.61148e-09 -1.5606e-09 1.33763e-10 -7.9703e-09 -1.00364e-09 1.40876e-10 -4.61147e-09 -7.73091 5.47488 -0.417314 -1.00364e-09 1.40874e-10 -4.61148e-09 -2.90554 0.965183 -0.102902 -1.00364e-09 1.40874e-10 -4.61148e-09 -10.2786 0.731801 -0.0259123 -1.00363e-09 1.40873e-10 -4.61148e-09 -2.22167 -0.733487 0.20892 -2.03217e-16 0.0 -3.88251e-19 -1.13004 -26.732 10.1971 -1.51387 65.8648 2.06751 -1.86042 -14.8733 -4.1126 2.03217e-16 0.0 3.88251e-19 -6.25901 -18.8537 -0.280948 1.0371 59.9953 -1.57275 -2.86508 -20.7006 -7.83574
-4.12349 72.5496 -39.8082 178.972 -24.2746 167.087 0.913681 24.2947 -5.5589 4.62274 -12.931 -1.29179 -0.952419 6.54393 -6.49791 -6.48591 -18.1494 -13.9975 -0.0 0.0 0.0 -0.0 0.0 0.0 6.27188e-15 -1.70256e-13 -6.64065e-13 24.6838 -15.1766 65.0871 -28.4295 -36.0035 77.0277 -1.82086 35.3388 5.71785 9.71795e-10 -8.46185e-11 6.69044e-10 1.68938e-09 -1.16739e-10 1.13016e-09 9.718e-10 -8.46181e-11 6.69034e-10 7.73091 5.47488 0.417314 9.71792e-10 -8.46171e-11 6.69039e-10 2.90554 0.965183 0.102902 9.71798e-10 -8.46161e-11 6.69042e-10 10.2786 0.731801 0.0259123 9.71789e-10 -8.46159e-11 6.6905e-10 2.22167 -0.733487 -0.20892 6.28298e-15 -1.70248e-13 -6.64329e-13 -38.3689 -6.44867 -96.8982 26.1417 -23.8048 -57.3732 4.0421 -48.1616 9.0309 -1.00741e-09 1.89952e-10 -3.98653e-09 -1.5888e-09 2.26552e-10 -6.89505e-09 -1.00741e-09 1.89954e-10 -3.98652e-09 -7.73091 5.47488 -0.417314 -1.00741e-09 1.89951e-10 -3.98653e-09 -2.90554 0.965183 -0.102902 -1.00742e-09 1.89951e-10 -3.98652e-09 -10.2786 0.731801 -0.0259123 -1.00741e-09 1.8995e-10 -3.98653e-09 -2.22167 -0.733487 0.20892 -2.03217e-16 0.0 -3.88251e-19 -1.1355 -26.6119 9.90983 -1.59545 66.6686 2.15558 -1.90913 -15.1374 -4.19571 2.03217e-16 0.0 3.88251e-19 -6.10153 -18.736 -0.219732 1.07959 60.6328 -1.61229 -3.03185 -21.125 -8.08089
-4.06797 72.3268 -40.3878 179.078 -24.4506 166.721 0.764256 24.2694 -5.3365 4.47853 -13.1095 -1.23976 -1.42003 7.08376 -6.59577 -5.65501 -19.2143 -14.015 -0.0 0.0 0.0 -0.0 0.0 0.0 -1.11795e-14 -2.53475e-13 -5.32279e-13 24.3244 -15.4961 64.6394 -28.4284 -36.1472 77.263 -1.90392 35.9994 5.8596 7.37695e-10 -5.62323e-11 6.05154e-10 1.28572e-09 -7.38608e-11 1.02334e-09 7.37698e-10 -5.62286e-11 6.05144e-10 7.73091 5.47488 0.417314 7.37691e-10 -5.62282e-11 6.05152e-10 2.90554 0.965183 0.102902 7.37698e-10 -5.62269e-11 6.05156e-10 10.2786 0.731801 0.0259123 7.37689e-10 -5.62291e-11 6.05168e-10 2.22167 -0.733487 -0.20892 -1.11651e-14 -2.5347e-13 -5.32508e-13 -38.1305 -6.60599 -97.2964 26.1552 -23.8407 -57.4283 4.07636 -48.3046 9.07681 -9.32959e-10 2.01302e-10 -3.21105e-09 -1.48797e-09 2.61391e-10 -5.55781e-09 -9.32964e-10 2.01304e-10 -3.21104e-09 -7.73091 5.47488 -0.417314 -9.32957e-10 2.013e-10 -3.21105e-09 -2.90554 0.965183 -0.102902 -9.32968e-10 2.01301e-10 -3.21104e-09 -10.2786 0.731801 -0.0259123 -9.3296e-10 2.013e-10 -3.21105e-09 -2.22167 -0.733487 0.20892 -2.03217e-16 0.0 -3.88251e-19 -1.07058 -26.4901 9.57166 -1.68299 67.4742 2.2515 -2.01119 -15.4755 -4.40749 2.03217e-16 0.0 3.88251e-19 -5.85354 -18.6394 -0.12643 1.1242 61.2702 -1.6529 -3.20811 -21.5319 -8.34662
-4.02114 72.1125 -40.9009 179.006 -24.7022 166.666 0.682575 24.1897 -5.19011 4.38701 -13.2488 -1.20155 -1.7927 7.71641 -6.68057 -4.94178 -20.3425 -14.046 -0.0 0.0 0.0 -0.0 0.0 0.0 -4.63097e-15 -3.04638e-13 -4.51539e-13 23.9697 -15.7304 64.2695 -28.4262 -36.3152 77.5388 -1.9664 36.4767 5.96398 4.89743e-10 -1.91819e-11 5.16567e-10 8.56893e-10 -1.35301e-11 8.75622e-10 4.89746e-10 -1.91764e-11 5.16557e-10 7.73091 5.47488 0.417314 4.89739e-10 -1.91765e-11 5.16567e-10 2.90554 0.965183 0.102902 4.89748e-10 -1.91751e-11 5.16571e-10 10.2786 0.731801 0.0259123 4.89738e-10 -1.91787e-11 5.16586e-10 2.22167 -0.733487 -0.20892 -4.61284e-15 -3.04636e-13 -4.51738e-13 -37.9136 -6.75534 -97.5607 26.1919 -23.9384 -57.5777 4.09086 -48.3647 9.09619 -8.91545e-10 2.13723e-10 -2.74135e-09 -1.43321e-09 2.94923e-10 -4.74795e-09 -8.91549e-10 2.13726e-10 -2.74134e-09 -7.73091 5.47488 -0.417314 -8.91541e-10 2.13722e-10 -2.74135e-09 -2.90554 0.965183 -0.102902 -8.91553e-10 2.13723e-10 -2.74134e-09 -10.2786 0.731801 -0.0259123 -8.91547e-10 2.13722e-10 -2.74135e-09 -2.22167 -0.733487 0.20892 -2.03217e-16 0.0 -3.88251e-19 -0.895248 -26.3722 9.18746 -1.7615 68.1549 2.33932 -2.1661 -15.7719 -4.76024 2.03217e-16 0.0 3.88251e-19 -5.488 -18.5701 -0.0273108 1.17058 61.8996 -1.69479 -3.39223 -21.928 -8.62814
